<svg xmlns="http://www.w3.org/2000/svg" width="410" height="174" viewBox="0 0 410 174" role="img" aria-label="The History of AI: Films rendered entirely from code. Canvas animation and a synthesized score, in 2-minute and 5-minute bilingual cuts.">
<g font-family="-apple-system, BlinkMacSystemFont, 'Segoe UI', Helvetica, Arial, 'PingFang SC', 'Microsoft YaHei', 'Noto Sans CJK SC', sans-serif">
<defs><clipPath id="c"><rect x=".5" y=".5" width="399" height="163" rx="16"/></clipPath></defs>
<rect x=".5" y=".5" width="399" height="163" rx="16" fill="#FFFFFF"/>
<g clip-path="url(#c)"><circle cx="382" cy="14" r="46" fill="none" stroke="#FCF1D6" stroke-width="12"/></g>
<rect x=".5" y=".5" width="399" height="163" rx="16" fill="none" stroke="#E1ECF2"/>
<path d="M366 30l8-8M367.5 22H374v6.5" fill="none" stroke="#7794A5" stroke-width="1.7" stroke-linecap="round" stroke-linejoin="round"/>
<rect x="22" y="22" width="42" height="42" rx="12" fill="#FCF1D6"/>
<g transform="translate(31 31) scale(1)" fill="none" stroke="#C98E10" stroke-width="2" stroke-linecap="round" stroke-linejoin="round"><rect x="2" y="4" width="20" height="16" rx="3"/><path d="M10 9l5 3-5 3z" fill="#C98E10"/></g>
<text x="78" y="41" font-size="18" font-weight="700" fill="#243D50">The History of AI</text>
<text x="78" y="60" font-size="12.5" fill="#7794A5">Films rendered entirely from code</text>
<text x="22" y="92" font-size="14" fill="#547082">Canvas animation and a synthesized score,</text>
<text x="22" y="111" font-size="14" fill="#547082">in 2-minute and 5-minute bilingual cuts.</text>
<rect x="22.0" y="124" width="71.3" height="19" rx="9.5" fill="#F2F7FA"/>
<text x="57.7" y="137.5" font-size="11" text-anchor="middle" fill="#547082">JavaScript</text>
<rect x="99.3" y="124" width="57.3" height="19" rx="9.5" fill="#F2F7FA"/>
<text x="128.0" y="137.5" font-size="11" text-anchor="middle" fill="#547082">Canvas</text>
<rect x="162.6" y="124" width="54.2" height="19" rx="9.5" fill="#F2F7FA"/>
<text x="189.8" y="137.5" font-size="11" text-anchor="middle" fill="#547082">Python</text>
</g>
</svg>
