<svg xmlns="http://www.w3.org/2000/svg" width="410" height="174" viewBox="0 0 410 174" role="img" aria-label="tinysc: Servlet container · alpha. A lightweight Servlet container built for single-WAR deployment on Java 8.">
<g font-family="-apple-system, BlinkMacSystemFont, 'Segoe UI', Helvetica, Arial, 'PingFang SC', 'Microsoft YaHei', 'Noto Sans CJK SC', sans-serif">
<defs><clipPath id="c"><rect x=".5" y=".5" width="399" height="163" rx="16"/></clipPath></defs>
<rect x=".5" y=".5" width="399" height="163" rx="16" fill="#FFFFFF"/>
<g clip-path="url(#c)"><circle cx="382" cy="14" r="46" fill="none" stroke="#E7EEF4" stroke-width="12"/></g>
<rect x=".5" y=".5" width="399" height="163" rx="16" fill="none" stroke="#E1ECF2"/>
<path d="M366 30l8-8M367.5 22H374v6.5" fill="none" stroke="#7794A5" stroke-width="1.7" stroke-linecap="round" stroke-linejoin="round"/>
<rect x="22" y="22" width="42" height="42" rx="12" fill="#E7EEF4"/>
<g transform="translate(31 31) scale(1)" fill="none" stroke="#4A6A85" stroke-width="2" stroke-linecap="round" stroke-linejoin="round"><rect x="3" y="3" width="18" height="7.5" rx="2"/><rect x="3" y="13.5" width="18" height="7.5" rx="2"/><path d="M7 6.75h.01M7 17.25h.01" stroke-width="2.6"/></g>
<text x="78" y="41" font-size="18" font-weight="700" fill="#243D50">tinysc</text>
<text x="78" y="60" font-size="12.5" fill="#7794A5">Servlet container · alpha</text>
<text x="22" y="92" font-size="14" fill="#547082">A lightweight Servlet container built for</text>
<text x="22" y="111" font-size="14" fill="#547082">single-WAR deployment on Java 8.</text>
<rect x="22.0" y="124" width="52.4" height="19" rx="9.5" fill="#F2F7FA"/>
<text x="48.2" y="137.5" font-size="11" text-anchor="middle" fill="#547082">Java 8</text>
<rect x="80.4" y="124" width="72.6" height="19" rx="9.5" fill="#F2F7FA"/>
<text x="116.7" y="137.5" font-size="11" text-anchor="middle" fill="#547082">Servlet 3.1</text>
<rect x="159.0" y="124" width="53.0" height="19" rx="9.5" fill="#F2F7FA"/>
<text x="185.5" y="137.5" font-size="11" text-anchor="middle" fill="#547082">Maven</text>
</g>
</svg>
